<svg xmlns="http://www.w3.org/2000/svg" xmlns:xlink="http://www.w3.org/1999/xlink" width="500" zoomAndPan="magnify" viewBox="0 0 375 374.999991" height="500" preserveAspectRatio="xMidYMid meet" version="1.0"><defs><g/><clipPath id="4ca0c8f841"><path d="M 0 0 L 182.730469 0 L 182.730469 87.246094 L 0 87.246094 Z M 0 0 " clip-rule="nonzero"/></clipPath><clipPath id="dd4bcc1ef4"><path d="M -0.0078125 -0.00390625 L 182.730469 -0.00390625 L 182.730469 43.972656 C 182.730469 67.875 162.445312 87.246094 137.410156 87.246094 L 45.308594 87.246094 C 20.273438 87.246094 -0.0078125 67.875 -0.0078125 43.972656 Z M -0.0078125 -0.00390625 " clip-rule="nonzero"/></clipPath><clipPath id="c24e66c530"><path d="M 182.738281 0 L 375 0 L 375 87.25 L 182.738281 87.25 Z M 182.738281 0 " clip-rule="nonzero"/></clipPath><clipPath id="982b3ad008"><path d="M 375 87.25 L 182.738281 87.25 L 182.738281 43.273438 C 182.738281 19.371094 204.082031 0 230.421875 0 L 327.320312 0 C 353.660156 0 375 19.371094 375 43.273438 Z M 375 87.25 " clip-rule="nonzero"/></clipPath></defs><g clip-path="url(#4ca0c8f841)"><g clip-path="url(#dd4bcc1ef4)"><path fill="#ff914d" d="M 182.730469 87.246094 L 0.0546875 87.246094 L 0.0546875 -0.00390625 L 182.730469 -0.00390625 Z M 182.730469 87.246094 " fill-opacity="1" fill-rule="nonzero"/></g></g><g clip-path="url(#c24e66c530)"><g clip-path="url(#982b3ad008)"><path fill="#000000" d="M 182.738281 0 L 374.960938 0 L 374.960938 87.25 L 182.738281 87.25 Z M 182.738281 0 " fill-opacity="1" fill-rule="nonzero"/></g></g><g fill="#ffffff" fill-opacity="1"><g transform="translate(39.549662, 40.474246)"><g><path d="M 1.09375 0 C 1.75 -0.175781 2.25 -0.359375 2.59375 -0.546875 C 2.945312 -0.742188 3.1875 -1.03125 3.3125 -1.40625 C 3.4375 -1.78125 3.5 -2.34375 3.5 -3.09375 L 3.5 -18.328125 C 3.5 -19.078125 3.4375 -19.632812 3.3125 -20 C 3.1875 -20.375 2.945312 -20.664062 2.59375 -20.875 C 2.25 -21.082031 1.75 -21.265625 1.09375 -21.421875 L 21.25 -21.421875 L 21.25 -16.015625 C 21.09375 -16.804688 20.898438 -17.410156 20.671875 -17.828125 C 20.441406 -18.253906 20.097656 -18.546875 19.640625 -18.703125 C 19.191406 -18.859375 18.550781 -18.9375 17.71875 -18.9375 L 6.703125 -18.9375 L 6.703125 -10.640625 L 15.203125 -10.640625 C 15.859375 -10.640625 16.359375 -10.695312 16.703125 -10.8125 C 17.054688 -10.925781 17.328125 -11.144531 17.515625 -11.46875 C 17.710938 -11.800781 17.890625 -12.273438 18.046875 -12.890625 L 18.046875 -5.921875 C 17.890625 -6.554688 17.710938 -7.03125 17.515625 -7.34375 C 17.328125 -7.65625 17.054688 -7.867188 16.703125 -7.984375 C 16.359375 -8.097656 15.859375 -8.15625 15.203125 -8.15625 L 6.703125 -8.15625 L 6.703125 -3.09375 C 6.703125 -2.34375 6.765625 -1.78125 6.890625 -1.40625 C 7.015625 -1.03125 7.242188 -0.742188 7.578125 -0.546875 C 7.921875 -0.359375 8.421875 -0.175781 9.078125 0 Z M 1.09375 0 "/></g></g></g><g fill="#ffffff" fill-opacity="1"><g transform="translate(61.953095, 40.474246)"><g><path d="M 1.09375 -15.296875 L 6.453125 -15.296875 L 6.453125 -12.890625 C 7.503906 -14.703125 9.128906 -15.609375 11.328125 -15.609375 C 12.410156 -15.609375 13.171875 -15.546875 13.609375 -15.421875 C 14.054688 -15.296875 14.28125 -15.234375 14.28125 -15.234375 L 14.28125 -11.59375 C 14.28125 -11.59375 14.210938 -11.765625 14.078125 -12.109375 C 13.941406 -12.460938 13.625 -12.753906 13.125 -12.984375 C 12.582031 -13.234375 11.878906 -13.359375 11.015625 -13.359375 C 9.722656 -13.359375 8.640625 -12.941406 7.765625 -12.109375 C 6.890625 -11.285156 6.453125 -10.070312 6.453125 -8.46875 L 6.453125 -3.09375 C 6.453125 -2.34375 6.515625 -1.78125 6.640625 -1.40625 C 6.765625 -1.03125 7 -0.742188 7.34375 -0.546875 C 7.6875 -0.359375 8.1875 -0.175781 8.84375 0 L 1.09375 0 C 1.75 -0.175781 2.25 -0.359375 2.59375 -0.546875 C 2.945312 -0.742188 3.1875 -1.03125 3.3125 -1.40625 C 3.4375 -1.78125 3.5 -2.34375 3.5 -3.09375 L 3.5 -12.203125 C 3.5 -12.953125 3.4375 -13.515625 3.3125 -13.890625 C 3.1875 -14.265625 2.945312 -14.550781 2.59375 -14.75 C 2.25 -14.957031 1.75 -15.140625 1.09375 -15.296875 Z M 1.09375 -15.296875 "/></g></g></g><g fill="#ffffff" fill-opacity="1"><g transform="translate(76.503433, 40.474246)"><g><path d="M 9.3125 -15.609375 C 11.757812 -15.609375 13.550781 -15.175781 14.6875 -14.3125 C 15.820312 -13.445312 16.390625 -12.210938 16.390625 -10.609375 L 16.390625 -3.09375 C 16.390625 -2.34375 16.453125 -1.78125 16.578125 -1.40625 C 16.703125 -1.03125 16.9375 -0.742188 17.28125 -0.546875 C 17.632812 -0.359375 18.140625 -0.175781 18.796875 0 L 13.390625 0 L 13.390625 -3.09375 C 12.753906 -2.113281 11.851562 -1.300781 10.6875 -0.65625 C 9.519531 -0.0078125 8.132812 0.3125 6.53125 0.3125 C 5.007812 0.3125 3.832031 -0.0625 3 -0.8125 C 2.175781 -1.5625 1.765625 -2.5625 1.765625 -3.8125 C 1.765625 -5.1875 2.253906 -6.304688 3.234375 -7.171875 C 4.222656 -8.035156 5.921875 -8.632812 8.328125 -8.96875 L 13.390625 -9.6875 L 13.390625 -10.03125 C 13.390625 -11.113281 13.003906 -11.941406 12.234375 -12.515625 C 11.460938 -13.097656 10.253906 -13.390625 8.609375 -13.390625 C 7.859375 -13.390625 7.195312 -13.328125 6.625 -13.203125 C 6.0625 -13.078125 5.578125 -12.914062 5.171875 -12.71875 C 4.597656 -12.445312 4.164062 -12.144531 3.875 -11.8125 C 3.582031 -11.488281 3.378906 -11.207031 3.265625 -10.96875 C 3.148438 -10.726562 3.09375 -10.609375 3.09375 -10.609375 L 3.09375 -14.171875 C 3.09375 -14.171875 3.289062 -14.289062 3.6875 -14.53125 C 4.082031 -14.769531 4.738281 -15.007812 5.65625 -15.25 C 6.570312 -15.488281 7.789062 -15.609375 9.3125 -15.609375 Z M 13.390625 -6.328125 L 13.390625 -7.859375 L 8.46875 -7.171875 C 7.101562 -6.992188 6.132812 -6.664062 5.5625 -6.1875 C 5 -5.707031 4.71875 -5.0625 4.71875 -4.25 C 4.71875 -2.6875 5.71875 -1.90625 7.71875 -1.90625 C 8.875 -1.90625 9.875 -2.132812 10.71875 -2.59375 C 11.570312 -3.0625 12.226562 -3.632812 12.6875 -4.3125 C 13.15625 -5 13.390625 -5.671875 13.390625 -6.328125 Z M 13.390625 -6.328125 "/></g></g></g><g fill="#ffffff" fill-opacity="1"><g transform="translate(95.983198, 40.474246)"><g><path d="M 1.09375 -15.296875 L 6.453125 -15.296875 L 6.453125 -12.859375 C 6.910156 -13.710938 7.550781 -14.382812 8.375 -14.875 C 9.207031 -15.363281 10.203125 -15.609375 11.359375 -15.609375 C 12.628906 -15.609375 13.613281 -15.332031 14.3125 -14.78125 C 15.019531 -14.238281 15.472656 -13.503906 15.671875 -12.578125 C 16.128906 -13.535156 16.773438 -14.28125 17.609375 -14.8125 C 18.453125 -15.34375 19.472656 -15.609375 20.671875 -15.609375 C 22.210938 -15.609375 23.335938 -15.207031 24.046875 -14.40625 C 24.765625 -13.613281 25.125 -12.585938 25.125 -11.328125 L 25.125 -3.09375 C 25.125 -2.34375 25.1875 -1.78125 25.3125 -1.40625 C 25.4375 -1.03125 25.664062 -0.742188 26 -0.546875 C 26.34375 -0.359375 26.84375 -0.175781 27.5 0 L 22.171875 0 L 22.171875 -10.546875 C 22.171875 -11.398438 21.953125 -12.082031 21.515625 -12.59375 C 21.085938 -13.101562 20.410156 -13.359375 19.484375 -13.359375 C 18.347656 -13.359375 17.445312 -12.992188 16.78125 -12.265625 C 16.113281 -11.546875 15.78125 -10.550781 15.78125 -9.28125 L 15.78125 -3.09375 C 15.78125 -2.34375 15.84375 -1.78125 15.96875 -1.40625 C 16.09375 -1.03125 16.328125 -0.742188 16.671875 -0.546875 C 17.023438 -0.359375 17.53125 -0.175781 18.1875 0 L 12.8125 0 L 12.8125 -10.546875 C 12.8125 -11.398438 12.597656 -12.082031 12.171875 -12.59375 C 11.742188 -13.101562 11.0625 -13.359375 10.125 -13.359375 C 9 -13.359375 8.101562 -12.992188 7.4375 -12.265625 C 6.78125 -11.546875 6.453125 -10.550781 6.453125 -9.28125 L 6.453125 -3.09375 C 6.453125 -2.34375 6.515625 -1.78125 6.640625 -1.40625 C 6.765625 -1.03125 7 -0.742188 7.34375 -0.546875 C 7.6875 -0.359375 8.1875 -0.175781 8.84375 0 L 1.09375 0 C 1.75 -0.175781 2.25 -0.359375 2.59375 -0.546875 C 2.945312 -0.742188 3.1875 -1.03125 3.3125 -1.40625 C 3.4375 -1.78125 3.5 -2.34375 3.5 -3.09375 L 3.5 -12.203125 C 3.5 -12.953125 3.4375 -13.515625 3.3125 -13.890625 C 3.1875 -14.265625 2.945312 -14.550781 2.59375 -14.75 C 2.25 -14.957031 1.75 -15.140625 1.09375 -15.296875 Z M 1.09375 -15.296875 "/></g></g></g><g fill="#ffffff" fill-opacity="1"><g transform="translate(124.063977, 40.474246)"><g><path d="M 9.59375 -15.609375 C 12.175781 -15.609375 14.117188 -14.921875 15.421875 -13.546875 C 16.722656 -12.171875 17.375 -10.207031 17.375 -7.65625 C 17.375 -7.519531 17.375 -7.359375 17.375 -7.171875 C 17.375 -6.992188 17.363281 -6.835938 17.34375 -6.703125 L 4.796875 -6.703125 C 5.128906 -3.503906 7.066406 -1.90625 10.609375 -1.90625 C 11.398438 -1.90625 12.0625 -1.945312 12.59375 -2.03125 C 13.125 -2.125 13.628906 -2.285156 14.109375 -2.515625 C 14.835938 -2.828125 15.34375 -3.179688 15.625 -3.578125 C 15.90625 -3.984375 16.046875 -4.1875 16.046875 -4.1875 L 16.046875 -1.015625 C 16.046875 -1.015625 15.867188 -0.90625 15.515625 -0.6875 C 15.171875 -0.476562 14.566406 -0.257812 13.703125 -0.03125 C 12.835938 0.195312 11.613281 0.3125 10.03125 0.3125 C 7.238281 0.3125 5.160156 -0.375 3.796875 -1.75 C 2.441406 -3.125 1.765625 -5.09375 1.765625 -7.65625 C 1.765625 -10.207031 2.421875 -12.171875 3.734375 -13.546875 C 5.054688 -14.921875 7.007812 -15.609375 9.59375 -15.609375 Z M 14.375 -8.609375 C 14.101562 -11.796875 12.507812 -13.390625 9.59375 -13.390625 C 8.164062 -13.390625 7.035156 -13 6.203125 -12.21875 C 5.378906 -11.4375 4.898438 -10.234375 4.765625 -8.609375 Z M 14.375 -8.609375 "/></g></g></g><g fill="#ffffff" fill-opacity="1"><g transform="translate(72.39732, 69.724244)"><g><path d="M 1.46875 0 L 1.46875 -8.640625 L 2.90625 -8.640625 L 2.90625 -1.453125 C 2.90625 -1.097656 2.9375 -0.832031 3 -0.65625 C 3.0625 -0.488281 3.171875 -0.359375 3.328125 -0.265625 C 3.492188 -0.171875 3.734375 -0.0820312 4.046875 0 Z M 1.46875 0 "/></g></g></g><g fill="#ffffff" fill-opacity="1"><g transform="translate(76.764271, 69.724244)"><g><path d="M 0.078125 -8.640625 L 3.703125 -8.640625 C 3.367188 -8.566406 3.128906 -8.476562 2.984375 -8.375 C 2.847656 -8.28125 2.78125 -8.132812 2.78125 -7.9375 C 2.78125 -7.78125 2.8125 -7.585938 2.875 -7.359375 L 4.296875 -1.59375 L 6 -8.640625 L 7.328125 -8.640625 L 9.03125 -1.59375 L 11.34375 -10.953125 C 11.40625 -11.179688 11.4375 -11.375 11.4375 -11.53125 C 11.4375 -11.738281 11.367188 -11.894531 11.234375 -12 C 11.109375 -12.101562 10.875 -12.179688 10.53125 -12.234375 L 14.140625 -12.234375 C 13.679688 -12.128906 13.363281 -11.957031 13.1875 -11.71875 C 13.019531 -11.488281 12.875 -11.125 12.75 -10.625 L 10.171875 0 L 8.375 0 L 6.671875 -7.015625 L 4.96875 0 L 3.171875 0 L 1.46875 -7.03125 C 1.34375 -7.53125 1.191406 -7.894531 1.015625 -8.125 C 0.847656 -8.363281 0.535156 -8.535156 0.078125 -8.640625 Z M 0.078125 -8.640625 "/></g></g></g><g fill="#ffffff" fill-opacity="1"><g transform="translate(90.21704, 69.724244)"><g><path d="M 4.4375 -8.78125 C 5.320312 -8.78125 6.015625 -8.722656 6.515625 -8.609375 C 7.023438 -8.503906 7.382812 -8.394531 7.59375 -8.28125 C 7.8125 -8.164062 7.921875 -8.109375 7.921875 -8.109375 L 7.921875 -6.359375 C 7.921875 -6.359375 7.882812 -6.414062 7.8125 -6.53125 C 7.75 -6.65625 7.628906 -6.800781 7.453125 -6.96875 C 7.273438 -7.132812 7.023438 -7.269531 6.703125 -7.375 C 6.367188 -7.476562 6.019531 -7.554688 5.65625 -7.609375 C 5.289062 -7.671875 4.867188 -7.703125 4.390625 -7.703125 C 3.628906 -7.703125 3.082031 -7.609375 2.75 -7.421875 C 2.425781 -7.234375 2.265625 -6.96875 2.265625 -6.625 C 2.265625 -6.226562 2.398438 -5.945312 2.671875 -5.78125 C 2.953125 -5.613281 3.3125 -5.472656 3.75 -5.359375 L 5.90625 -4.796875 C 6.71875 -4.597656 7.304688 -4.300781 7.671875 -3.90625 C 8.046875 -3.519531 8.234375 -2.988281 8.234375 -2.3125 C 8.234375 -1.539062 7.953125 -0.9375 7.390625 -0.5 C 6.828125 -0.0703125 5.863281 0.140625 4.5 0.140625 C 3.601562 0.140625 2.882812 0.0859375 2.34375 -0.015625 C 1.8125 -0.128906 1.425781 -0.242188 1.1875 -0.359375 C 0.945312 -0.472656 0.828125 -0.53125 0.828125 -0.53125 L 0.828125 -2.296875 C 0.828125 -2.296875 0.863281 -2.234375 0.9375 -2.109375 C 1.019531 -1.984375 1.15625 -1.835938 1.34375 -1.671875 C 1.539062 -1.503906 1.8125 -1.367188 2.15625 -1.265625 C 2.519531 -1.160156 2.878906 -1.078125 3.234375 -1.015625 C 3.597656 -0.960938 4.03125 -0.9375 4.53125 -0.9375 C 5.351562 -0.9375 5.929688 -1.050781 6.265625 -1.28125 C 6.609375 -1.507812 6.78125 -1.84375 6.78125 -2.28125 C 6.78125 -2.65625 6.671875 -2.945312 6.453125 -3.15625 C 6.234375 -3.363281 5.882812 -3.523438 5.40625 -3.640625 L 3.265625 -4.203125 C 2.492188 -4.390625 1.894531 -4.65625 1.46875 -5 C 1.039062 -5.351562 0.828125 -5.890625 0.828125 -6.609375 C 0.828125 -7.273438 1.109375 -7.800781 1.671875 -8.1875 C 2.242188 -8.582031 3.164062 -8.78125 4.4375 -8.78125 Z M 4.4375 -8.78125 "/></g></g></g><g fill="#ffffff" fill-opacity="1"><g transform="translate(99.206877, 69.724244)"><g><path d="M 0.515625 -8.640625 L 3.09375 -8.640625 L 3.09375 -3.828125 C 3.09375 -2.921875 3.34375 -2.21875 3.84375 -1.71875 C 4.34375 -1.21875 5.035156 -0.96875 5.921875 -0.96875 C 6.691406 -0.96875 7.269531 -1.160156 7.65625 -1.546875 C 8.039062 -1.941406 8.234375 -2.492188 8.234375 -3.203125 L 8.234375 -7.1875 C 8.234375 -7.539062 8.203125 -7.800781 8.140625 -7.96875 C 8.085938 -8.144531 7.976562 -8.28125 7.8125 -8.375 C 7.644531 -8.476562 7.410156 -8.566406 7.109375 -8.640625 L 10.8125 -8.640625 C 10.507812 -8.566406 10.273438 -8.476562 10.109375 -8.375 C 9.953125 -8.28125 9.84375 -8.144531 9.78125 -7.96875 C 9.726562 -7.800781 9.703125 -7.539062 9.703125 -7.1875 L 9.703125 -2.921875 C 9.703125 -1.984375 9.441406 -1.238281 8.921875 -0.6875 C 8.398438 -0.132812 7.613281 0.140625 6.5625 0.140625 C 5.707031 0.140625 4.988281 -0.0078125 4.40625 -0.3125 C 3.832031 -0.613281 3.394531 -1.046875 3.09375 -1.609375 L 3.09375 0 L 0.515625 0 C 0.816406 -0.0820312 1.050781 -0.171875 1.21875 -0.265625 C 1.382812 -0.359375 1.492188 -0.488281 1.546875 -0.65625 C 1.609375 -0.832031 1.640625 -1.097656 1.640625 -1.453125 L 1.640625 -7.1875 C 1.640625 -7.539062 1.609375 -7.800781 1.546875 -7.96875 C 1.492188 -8.144531 1.382812 -8.28125 1.21875 -8.375 C 1.050781 -8.476562 0.816406 -8.566406 0.515625 -8.640625 Z M 0.515625 -8.640625 "/></g></g></g><g fill="#ffffff" fill-opacity="1"><g transform="translate(249.473484, 40.474246)"><g><path d="M 0.3125 0 C 1.03125 -0.25 1.585938 -0.507812 1.984375 -0.78125 C 2.378906 -1.050781 2.710938 -1.425781 2.984375 -1.90625 C 3.265625 -2.382812 3.570312 -3.039062 3.90625 -3.875 L 11.359375 -21.421875 L 16.765625 -21.421875 L 24.203125 -3.875 C 24.546875 -3.039062 24.851562 -2.382812 25.125 -1.90625 C 25.394531 -1.425781 25.726562 -1.050781 26.125 -0.78125 C 26.519531 -0.507812 27.082031 -0.25 27.8125 0 L 18.5 0 C 19.445312 -0.15625 20.117188 -0.363281 20.515625 -0.625 C 20.910156 -0.882812 21.109375 -1.242188 21.109375 -1.703125 C 21.109375 -1.929688 21.066406 -2.179688 20.984375 -2.453125 C 20.910156 -2.722656 20.804688 -3.039062 20.671875 -3.40625 L 19.453125 -6.328125 L 8.671875 -6.328125 L 7.453125 -3.40625 C 7.304688 -3.039062 7.191406 -2.722656 7.109375 -2.453125 C 7.035156 -2.179688 7 -1.929688 7 -1.703125 C 7 -1.242188 7.195312 -0.882812 7.59375 -0.625 C 7.988281 -0.363281 8.664062 -0.15625 9.625 0 Z M 9.71875 -8.90625 L 18.359375 -8.90625 L 14.046875 -19.3125 Z M 9.71875 -8.90625 "/></g></g></g><g fill="#ffffff" fill-opacity="1"><g transform="translate(277.554262, 40.474246)"><g><path d="M 1.265625 -15.296875 L 7.28125 -15.296875 L 7.28125 -12.6875 C 8.457031 -14.632812 10.257812 -15.609375 12.6875 -15.609375 C 13.863281 -15.609375 14.6875 -15.546875 15.15625 -15.421875 C 15.632812 -15.296875 15.875 -15.234375 15.875 -15.234375 L 15.875 -11.484375 C 15.875 -11.484375 15.789062 -11.65625 15.625 -12 C 15.457031 -12.34375 15.113281 -12.628906 14.59375 -12.859375 C 14.019531 -13.097656 13.28125 -13.21875 12.375 -13.21875 C 11.46875 -13.21875 10.625 -13.019531 9.84375 -12.625 C 9.0625 -12.226562 8.4375 -11.644531 7.96875 -10.875 C 7.507812 -10.101562 7.28125 -9.15625 7.28125 -8.03125 L 7.28125 -3.640625 C 7.28125 -2.773438 7.351562 -2.113281 7.5 -1.65625 C 7.644531 -1.207031 7.914062 -0.867188 8.3125 -0.640625 C 8.707031 -0.421875 9.289062 -0.207031 10.0625 0 L 1.265625 0 C 2.023438 -0.207031 2.601562 -0.421875 3 -0.640625 C 3.40625 -0.867188 3.675781 -1.207031 3.8125 -1.65625 C 3.945312 -2.113281 4.015625 -2.773438 4.015625 -3.640625 L 4.015625 -11.65625 C 4.015625 -12.519531 3.945312 -13.175781 3.8125 -13.625 C 3.675781 -14.082031 3.40625 -14.429688 3 -14.671875 C 2.601562 -14.910156 2.023438 -15.117188 1.265625 -15.296875 Z M 1.265625 -15.296875 "/></g></g></g><g fill="#ffffff" fill-opacity="1"><g transform="translate(293.702413, 40.474246)"><g><path d="M 0.3125 -12.921875 L 0.3125 -15.296875 L 3.5625 -15.296875 L 3.5625 -19.984375 C 4.25 -20.015625 4.867188 -20.140625 5.421875 -20.359375 C 5.972656 -20.585938 6.441406 -20.941406 6.828125 -21.421875 L 6.828125 -15.296875 L 11.421875 -15.296875 L 11.421875 -11.390625 C 11.148438 -11.984375 10.78125 -12.382812 10.3125 -12.59375 C 9.851562 -12.8125 9.160156 -12.921875 8.234375 -12.921875 L 6.828125 -12.921875 L 6.828125 -4.859375 C 6.828125 -3.992188 7.0625 -3.3125 7.53125 -2.8125 C 8 -2.320312 8.71875 -2.078125 9.6875 -2.078125 C 10.550781 -2.078125 11.257812 -2.191406 11.8125 -2.421875 C 12.363281 -2.660156 12.785156 -2.929688 13.078125 -3.234375 C 13.378906 -3.546875 13.585938 -3.820312 13.703125 -4.0625 C 13.816406 -4.300781 13.875 -4.421875 13.875 -4.421875 L 13.875 -0.640625 C 13.875 -0.640625 13.707031 -0.5625 13.375 -0.40625 C 13.050781 -0.25 12.535156 -0.09375 11.828125 0.0625 C 11.128906 0.226562 10.191406 0.3125 9.015625 0.3125 C 7.203125 0.3125 5.835938 -0.101562 4.921875 -0.9375 C 4.015625 -1.78125 3.5625 -2.929688 3.5625 -4.390625 L 3.5625 -12.921875 Z M 0.3125 -12.921875 "/></g></g></g><g fill="#ffffff" fill-opacity="1"><g transform="translate(257.442234, 69.724244)"><g><path d="M 5.4375 -8.78125 C 7.125 -8.78125 8.394531 -8.394531 9.25 -7.625 C 10.101562 -6.863281 10.53125 -5.757812 10.53125 -4.3125 C 10.53125 -2.875 10.101562 -1.769531 9.25 -1 C 8.394531 -0.238281 7.125 0.140625 5.4375 0.140625 C 4.3125 0.140625 3.421875 0.0820312 2.765625 -0.03125 C 2.109375 -0.144531 1.632812 -0.265625 1.34375 -0.390625 C 1.0625 -0.515625 0.921875 -0.578125 0.921875 -0.578125 L 0.921875 -4.671875 L 4.390625 -4.671875 C 3.859375 -4.585938 3.457031 -4.484375 3.1875 -4.359375 C 2.914062 -4.234375 2.734375 -4.046875 2.640625 -3.796875 C 2.546875 -3.554688 2.5 -3.195312 2.5 -2.71875 L 2.5 -1.359375 C 2.789062 -1.285156 3.160156 -1.210938 3.609375 -1.140625 C 4.054688 -1.078125 4.582031 -1.046875 5.1875 -1.046875 C 6.46875 -1.046875 7.410156 -1.332031 8.015625 -1.90625 C 8.628906 -2.488281 8.9375 -3.289062 8.9375 -4.3125 C 8.9375 -5.34375 8.628906 -6.144531 8.015625 -6.71875 C 7.410156 -7.300781 6.46875 -7.59375 5.1875 -7.59375 C 4.625 -7.59375 4.132812 -7.5625 3.71875 -7.5 C 3.300781 -7.4375 2.914062 -7.347656 2.5625 -7.234375 C 1.976562 -7.046875 1.554688 -6.835938 1.296875 -6.609375 C 1.046875 -6.390625 0.921875 -6.28125 0.921875 -6.28125 L 0.921875 -8.0625 C 0.921875 -8.0625 1.0625 -8.117188 1.34375 -8.234375 C 1.632812 -8.359375 2.109375 -8.476562 2.765625 -8.59375 C 3.421875 -8.71875 4.3125 -8.78125 5.4375 -8.78125 Z M 5.4375 -8.78125 "/></g></g></g><g fill="#ffffff" fill-opacity="1"><g transform="translate(268.879481, 69.724244)"><g><path d="M 3.484375 -8.78125 C 6.140625 -8.78125 7.46875 -7.679688 7.46875 -5.484375 L 7.46875 -1.71875 C 7.46875 -1.3125 7.503906 -1 7.578125 -0.78125 C 7.648438 -0.570312 7.773438 -0.410156 7.953125 -0.296875 C 8.140625 -0.191406 8.414062 -0.09375 8.78125 0 L 4.578125 0 C 4.941406 -0.09375 5.21875 -0.191406 5.40625 -0.296875 C 5.59375 -0.410156 5.71875 -0.570312 5.78125 -0.78125 C 5.851562 -1 5.890625 -1.3125 5.890625 -1.71875 L 5.890625 -5.21875 C 5.890625 -6.039062 5.679688 -6.640625 5.265625 -7.015625 C 4.847656 -7.398438 4.164062 -7.59375 3.21875 -7.59375 C 2.789062 -7.59375 2.414062 -7.5625 2.09375 -7.5 C 1.78125 -7.4375 1.515625 -7.351562 1.296875 -7.25 C 0.992188 -7.125 0.757812 -6.984375 0.59375 -6.828125 C 0.425781 -6.679688 0.304688 -6.550781 0.234375 -6.4375 C 0.171875 -6.320312 0.140625 -6.265625 0.140625 -6.265625 L 0.140625 -8.0625 C 0.140625 -8.0625 0.25 -8.117188 0.46875 -8.234375 C 0.6875 -8.359375 1.039062 -8.476562 1.53125 -8.59375 C 2.019531 -8.71875 2.671875 -8.78125 3.484375 -8.78125 Z M 3.484375 -8.78125 "/></g></g></g><g fill="#ffffff" fill-opacity="1"><g transform="translate(278.013285, 69.724244)"><g><path d="M 4.921875 -8.78125 C 5.921875 -8.78125 6.703125 -8.71875 7.265625 -8.59375 C 7.835938 -8.476562 8.242188 -8.359375 8.484375 -8.234375 C 8.734375 -8.109375 8.859375 -8.046875 8.859375 -8.046875 L 8.859375 -6.171875 C 8.859375 -6.171875 8.820312 -6.238281 8.75 -6.375 C 8.675781 -6.507812 8.539062 -6.664062 8.34375 -6.84375 C 8.15625 -7.019531 7.878906 -7.164062 7.515625 -7.28125 C 7.117188 -7.394531 6.710938 -7.476562 6.296875 -7.53125 C 5.890625 -7.59375 5.398438 -7.625 4.828125 -7.625 C 3.984375 -7.625 3.382812 -7.535156 3.03125 -7.359375 C 2.675781 -7.191406 2.5 -6.941406 2.5 -6.609375 C 2.5 -6.191406 2.65625 -5.898438 2.96875 -5.734375 C 3.28125 -5.566406 3.679688 -5.4375 4.171875 -5.34375 L 6.5625 -4.859375 C 7.488281 -4.691406 8.164062 -4.40625 8.59375 -4 C 9.019531 -3.601562 9.234375 -3.050781 9.234375 -2.34375 C 9.234375 -1.8125 9.097656 -1.359375 8.828125 -0.984375 C 8.566406 -0.617188 8.128906 -0.335938 7.515625 -0.140625 C 6.898438 0.046875 6.082031 0.140625 5.0625 0.140625 C 4.039062 0.140625 3.226562 0.0820312 2.625 -0.03125 C 2.03125 -0.15625 1.597656 -0.28125 1.328125 -0.40625 C 1.054688 -0.53125 0.921875 -0.59375 0.921875 -0.59375 L 0.921875 -2.46875 C 0.921875 -2.46875 0.96875 -2.394531 1.0625 -2.25 C 1.15625 -2.113281 1.3125 -1.957031 1.53125 -1.78125 C 1.75 -1.601562 2.050781 -1.457031 2.4375 -1.34375 C 2.851562 -1.226562 3.265625 -1.144531 3.671875 -1.09375 C 4.085938 -1.039062 4.585938 -1.015625 5.171875 -1.015625 C 6.085938 -1.015625 6.726562 -1.113281 7.09375 -1.3125 C 7.457031 -1.519531 7.640625 -1.847656 7.640625 -2.296875 C 7.640625 -2.671875 7.519531 -2.957031 7.28125 -3.15625 C 7.039062 -3.351562 6.648438 -3.503906 6.109375 -3.609375 L 3.734375 -4.09375 C 2.859375 -4.257812 2.171875 -4.515625 1.671875 -4.859375 C 1.171875 -5.210938 0.921875 -5.785156 0.921875 -6.578125 C 0.921875 -7.242188 1.234375 -7.773438 1.859375 -8.171875 C 2.484375 -8.578125 3.503906 -8.78125 4.921875 -8.78125 Z M 4.921875 -8.78125 "/></g></g></g><g fill="#ffffff" fill-opacity="1"><g transform="translate(288.571626, 69.724244)"><g><path d="M -6.5625 -11.296875 C -6.5625 -11.773438 -6.378906 -12.15625 -6.015625 -12.4375 C -5.648438 -12.726562 -5.132812 -12.875 -4.46875 -12.875 C -3.976562 -12.875 -3.53125 -12.820312 -3.125 -12.71875 C -2.726562 -12.613281 -2.378906 -12.488281 -2.078125 -12.34375 C -1.785156 -12.195312 -1.5625 -12.070312 -1.40625 -11.96875 C -1.25 -11.863281 -1.171875 -11.8125 -1.171875 -11.8125 L -1.171875 -10.84375 C -1.171875 -10.84375 -1.238281 -10.890625 -1.375 -10.984375 C -1.519531 -11.078125 -1.722656 -11.179688 -1.984375 -11.296875 C -2.242188 -11.421875 -2.539062 -11.53125 -2.875 -11.625 C -3.207031 -11.71875 -3.5625 -11.765625 -3.9375 -11.765625 C -4.300781 -11.765625 -4.578125 -11.691406 -4.765625 -11.546875 C -4.953125 -11.398438 -5.046875 -11.203125 -5.046875 -10.953125 C -5.046875 -10.691406 -4.976562 -10.507812 -4.84375 -10.40625 C -4.707031 -10.300781 -4.640625 -10.25 -4.640625 -10.25 L -6.296875 -10.25 C -6.296875 -10.25 -6.335938 -10.332031 -6.421875 -10.5 C -6.515625 -10.675781 -6.5625 -10.941406 -6.5625 -11.296875 Z M -6.5625 -11.296875 "/></g></g></g><g fill="#ffffff" fill-opacity="1"><g transform="translate(288.074872, 69.724244)"><g><path d="M 0.90625 -4.3125 C 0.90625 -5.820312 1.203125 -6.941406 1.796875 -7.671875 C 2.398438 -8.410156 3.210938 -8.78125 4.234375 -8.78125 L 5.734375 -7.625 L 7.203125 -8.78125 C 8.242188 -8.78125 9.054688 -8.476562 9.640625 -7.875 C 10.234375 -7.269531 10.53125 -6.476562 10.53125 -5.5 L 10.53125 -1.71875 C 10.53125 -1.3125 10.5625 -1 10.625 -0.78125 C 10.695312 -0.570312 10.828125 -0.410156 11.015625 -0.296875 C 11.203125 -0.191406 11.476562 -0.09375 11.84375 0 L 8.9375 0 L 8.9375 -5.59375 C 8.9375 -6.132812 8.804688 -6.570312 8.546875 -6.90625 C 8.285156 -7.25 7.910156 -7.46875 7.421875 -7.5625 L 5.71875 -6.234375 L 4.0625 -7.5 C 3.570312 -7.382812 3.1875 -7.070312 2.90625 -6.5625 C 2.632812 -6.050781 2.5 -5.316406 2.5 -4.359375 C 2.5 -3.128906 2.742188 -2.265625 3.234375 -1.765625 C 3.722656 -1.273438 4.398438 -1.03125 5.265625 -1.03125 C 5.679688 -1.03125 6.019531 -1.078125 6.28125 -1.171875 C 6.539062 -1.265625 6.738281 -1.375 6.875 -1.5 C 7.019531 -1.632812 7.113281 -1.75 7.15625 -1.84375 C 7.207031 -1.9375 7.234375 -1.984375 7.234375 -1.984375 L 7.234375 -0.359375 C 7.234375 -0.359375 7.15625 -0.316406 7 -0.234375 C 6.84375 -0.148438 6.59375 -0.0664062 6.25 0.015625 C 5.914062 0.0976562 5.457031 0.140625 4.875 0.140625 C 3.59375 0.140625 2.609375 -0.203125 1.921875 -0.890625 C 1.242188 -1.578125 0.90625 -2.71875 0.90625 -4.3125 Z M 0.90625 -4.3125 "/></g></g></g></svg>